<svg width="68" height="42" viewBox="0 0 68 42" fill="none" xmlns="http://www.w3.org/2000/svg">
    <rect width="68" height="42" fill="white"/>
    <path d="M7.80617 19.4894V18.662H6.56523V17.7602H8.80633V19.8519C8.35255 20.4655 7.58391 20.856 6.67636 20.856C5.08351 20.856 4 19.666 4 18.2529C4 16.8399 5.05573 15.6499 6.60227 15.6499C7.4913 15.6499 8.21364 16.0497 8.66742 16.6446L7.88025 17.2582C7.60243 16.8585 7.15791 16.5796 6.60227 16.5796C5.6762 16.5796 5.01868 17.3047 5.01868 18.2436C5.01868 19.1826 5.71324 19.9077 6.6671 19.9077C7.13013 19.9077 7.52834 19.7497 7.80617 19.4801" fill="#1B1C1B"/>
    <path d="M14.7424 18.2529C14.7424 19.6567 13.6867 20.856 12.1494 20.856C10.6121 20.856 9.54712 19.666 9.54712 18.2529C9.54712 16.8399 10.6028 15.6499 12.1494 15.6499C13.6959 15.6499 14.7424 16.8399 14.7424 18.2529ZM13.7237 18.2529C13.7237 17.314 13.0662 16.5889 12.1494 16.5889C11.2326 16.5889 10.5658 17.314 10.5658 18.2529C10.5658 19.1919 11.2233 19.917 12.1494 19.917C13.0755 19.917 13.7237 19.1919 13.7237 18.2529Z" fill="#1B1C1B"/>
    <path d="M18.5855 15.7891H19.5764V18.7826C19.5764 20.0748 18.817 20.8464 17.5853 20.8464C16.3536 20.8464 15.6035 20.0748 15.6035 18.7826V15.7891H16.5944V18.8662C16.5944 19.5263 16.9648 19.9167 17.5853 19.9167C18.2058 19.9167 18.5762 19.5263 18.5762 18.8662V15.7891H18.5855Z" fill="#1B1C1B"/>
    <path d="M21.2435 15.7891L22.6974 19.6378L24.1421 15.7891H25.1978L23.3457 20.7069H22.0492L20.1877 15.7891H21.2435Z" fill="#1B1C1B"/>
    <path d="M25.9565 15.7891H28.8089V16.6443H26.9474V17.7785H28.531V18.6338H26.9474V19.861H28.8089V20.7069H25.9565V15.7891Z" fill="#1B1C1B"/>
    <path d="M29.9673 15.7988H31.4675C32.5418 15.7988 33.2085 16.3566 33.2085 17.2677C33.2085 17.8534 32.9215 18.2996 32.4214 18.5413L33.9587 20.7167H32.764L31.4675 18.7272H30.9582V20.7167H29.9673V15.7988ZM30.9582 16.6448V17.872H31.5138C31.9306 17.872 32.1806 17.6488 32.1806 17.2491C32.1806 16.8772 31.9398 16.6448 31.5138 16.6448H30.9582Z" fill="#1B1C1B"/>
    <path d="M34.5784 15.7891H35.8471L38.0419 19.3125V15.7891H39.0328V20.7069H37.7641L35.5693 17.1743V20.7069H34.5784V15.7891Z" fill="#1B1C1B"/>
    <path d="M40.4041 15.7891H43.2656V16.6443H41.4042V17.7785H42.9785V18.6338H41.4042V19.861H43.2656V20.7069H40.4041V15.7891Z" fill="#1B1C1B"/>
    <path d="M44.4141 15.7891H45.6735L46.8496 17.8157L48.035 15.7891H49.2852V20.7069H48.2943V17.2114L47.2015 19.0243H46.507L45.4142 17.2114V20.7069H44.4141V15.7891Z" fill="#1B1C1B"/>
    <path d="M50.6558 15.7891H53.5081V16.6443H51.6467V17.7785H53.2302V18.6338H51.6467V19.861H53.5081V20.7069H50.6558V15.7891Z" fill="#1B1C1B"/>
    <path d="M54.6648 15.7891H55.9335L58.1283 19.3125V15.7891H59.1192V20.7069H57.8412L55.6557 17.1743V20.7069H54.6648V15.7891Z" fill="#1B1C1B"/>
    <path d="M59.9902 15.7891H64.0001V16.7001H62.4906V20.7069H61.4997V16.7001H59.9902V15.7891Z" fill="#1B1C1B"/>
    <path d="M20.3554 34.2895C20.4851 34.2895 20.6055 34.3917 20.5407 34.6427L19.9202 34.7915C20.0313 34.5033 20.2073 34.2895 20.3554 34.2895ZM20.6981 35.2842H20.5777C20.4203 35.4701 20.2628 35.6096 20.0961 35.6096C19.9294 35.6096 19.8368 35.5073 19.8368 35.2842C19.8368 35.1912 19.8461 35.0983 19.8646 35.0053L20.8555 34.6799C21.05 34.2151 20.8185 34.0199 20.5407 34.0199C20.0684 34.0199 19.5312 34.8101 19.5312 35.498C19.5312 35.8048 19.6794 35.9815 19.9109 35.9815C20.1795 35.9815 20.4573 35.7211 20.6888 35.2842M20.4943 33.8339L21.1982 33.1739V33.0995H20.8185L20.3925 33.8339H20.5036H20.4943ZM18.3459 34.2988H18.6792L18.1514 35.7397C18.1051 35.8606 18.1699 35.9815 18.2996 35.9815C18.5959 35.9815 19.0775 35.684 19.2441 35.2842H19.1515C19.0219 35.4237 18.7626 35.6096 18.5496 35.6561L19.0311 34.3081H19.522L19.5868 34.1035H19.1052L19.2905 33.5829H19.096L18.7533 34.1035L18.3459 34.1593V34.3081V34.2988ZM17.9013 34.2337C17.9384 34.1035 17.855 34.0199 17.7809 34.0199C17.4939 34.0199 17.1512 34.2802 17.0123 34.6427H17.1049C17.1975 34.5126 17.355 34.3639 17.5031 34.336L16.9567 35.7676C16.9104 35.8978 17.003 35.9722 17.0771 35.9722C17.3457 35.9722 17.6698 35.7119 17.8087 35.3493H17.7161C17.6235 35.4794 17.4661 35.6282 17.3179 35.6561L17.9013 34.2244V34.2337ZM18.0032 33.5086C18.1329 33.5086 18.244 33.4063 18.244 33.2669C18.244 33.1274 18.1329 33.0251 18.0032 33.0251C17.8736 33.0251 17.7624 33.1367 17.7624 33.2669C17.7624 33.397 17.8643 33.5086 18.0032 33.5086ZM14.836 35.7119C14.7619 35.8699 14.836 35.9815 14.9935 35.9815C15.0861 35.9815 15.1324 35.9536 15.1694 35.8513L15.5491 34.838C15.7251 34.6242 16.0862 34.3917 16.2344 34.3917C16.3363 34.3917 16.327 34.4754 16.2529 34.6056L15.6695 35.7304C15.6139 35.842 15.688 35.9722 15.8177 35.9722C16.1048 35.9722 16.4474 35.7119 16.5863 35.3493H16.4937C16.4011 35.4794 16.2437 35.6282 16.0955 35.6561L16.5956 34.6335C16.6604 34.5033 16.6974 34.3824 16.6974 34.2802C16.6974 34.1128 16.6048 34.0013 16.4289 34.0013C16.1788 34.0013 15.9288 34.2802 15.6325 34.6242V34.3546C15.6325 34.1593 15.5676 33.992 15.4009 33.992C15.2898 33.992 15.1879 34.085 15.0953 34.2151V34.2523C15.2805 34.243 15.3639 34.5219 15.2342 34.8194L14.8453 35.684L14.836 35.7119ZM14.836 34.4568C14.9009 34.2244 14.8638 34.0199 14.6879 34.0199C14.4749 34.0199 14.4193 34.1779 14.2063 34.6427V34.3731C14.2063 34.1779 14.1415 34.0106 13.9748 34.0106C13.771 34.0106 13.5951 34.3267 13.4469 34.6335H13.5395C13.6321 34.494 13.7247 34.4103 13.7988 34.4103C13.8822 34.4103 13.9285 34.5405 13.7988 34.838L13.4099 35.7026C13.3358 35.8606 13.4099 35.9722 13.5673 35.9722C13.6599 35.9722 13.7062 35.9443 13.7433 35.842L14.123 34.8287C14.2341 34.6985 14.3267 34.5777 14.4471 34.4475H14.8175L14.836 34.4568ZM12.632 34.2802C12.7616 34.2802 12.882 34.3824 12.8172 34.6335L12.1967 34.7822C12.3078 34.494 12.4838 34.2802 12.6227 34.2802M12.9654 35.2749H12.845C12.6875 35.4608 12.5208 35.6003 12.3634 35.6003C12.206 35.6003 12.1134 35.498 12.1134 35.2749C12.1134 35.1819 12.1226 35.089 12.1412 34.996L13.1321 34.6706C13.3265 34.2058 13.095 34.0106 12.8172 34.0106C12.3449 34.0106 11.8078 34.8008 11.8078 35.4887C11.8078 35.7955 11.9559 35.9722 12.1875 35.9722C12.456 35.9722 12.7338 35.7119 12.9654 35.2749ZM10.6224 34.2895H10.9558L10.4279 35.7304C10.3816 35.8513 10.4464 35.9722 10.5761 35.9722C10.8724 35.9722 11.354 35.6747 11.5207 35.2749H11.4281C11.2984 35.4144 11.0391 35.6003 10.8169 35.6468L11.2984 34.2988H11.7892L11.8541 34.0943H11.3725L11.5577 33.5736H11.3633L11.0206 34.0943L10.6131 34.15V34.2988L10.6224 34.2895ZM8.80729 35.4144C8.80729 34.9681 9.29811 34.3731 9.57593 34.3731C9.64075 34.3731 9.69632 34.3731 9.74262 34.3917L9.45554 35.1634C9.28884 35.3679 9.0388 35.6096 8.91841 35.6096C8.85359 35.6096 8.80729 35.5538 8.80729 35.4237M10.3168 33.9455H10.1686L10.0019 34.1035H9.96488C9.14993 34.1035 8.43686 35.0239 8.43686 35.7026C8.43686 35.8885 8.54798 36 8.7332 36C8.9462 36 9.14993 35.6933 9.39071 35.3772V35.4887C9.35367 35.8234 9.45554 36 9.62223 36C9.82597 36 10.0019 35.684 10.1501 35.3772H10.0575C9.96488 35.5166 9.87227 35.6003 9.79819 35.6003C9.7241 35.6003 9.66853 35.4608 9.79819 35.1727L10.326 33.9548L10.3168 33.9455ZM8.57577 34.4661C8.64059 34.2337 8.60355 34.0292 8.42759 34.0292C8.2146 34.0292 8.15903 34.1872 7.94604 34.652V34.3824C7.94604 34.1872 7.88121 34.0199 7.71452 34.0199C7.51078 34.0199 7.33483 34.336 7.18665 34.6427H7.27926C7.38113 34.5033 7.46448 34.4196 7.53856 34.4196C7.62191 34.4196 7.66821 34.5498 7.53856 34.8473L7.14961 35.7119C7.07553 35.8699 7.14961 35.9815 7.30704 35.9815C7.39965 35.9815 7.44596 35.9536 7.483 35.8513L7.86269 34.838C7.97382 34.7078 8.06643 34.587 8.18682 34.4568H8.55725L8.57577 34.4661ZM5.82532 35.9164L5.86237 35.8048C5.38081 35.7119 5.32524 35.7119 5.51046 35.1912L5.70494 34.652H6.2328C6.47358 34.652 6.47358 34.745 6.43653 35.0053H6.57545L6.89031 34.1407H6.7514C6.63101 34.3453 6.5384 34.494 6.2791 34.494H5.7605L6.03832 33.7317C6.12167 33.49 6.17723 33.4435 6.50136 33.4435H6.73288C7.06627 33.4435 7.10331 33.5365 7.10331 33.8711H7.23296L7.34409 33.2762H5.36229L5.32524 33.3877C5.70494 33.4714 5.74198 33.4993 5.56602 34.0013L5.13077 35.1819C4.95481 35.6747 4.88073 35.7119 4.43621 35.7955L4.39917 35.9071H5.81606L5.82532 35.9164Z" fill="#1B1C1B"/>
    <path d="M15.5398 29.7807C15.6695 29.7807 15.7899 29.883 15.7251 30.134L15.1046 30.2734C15.2157 29.9852 15.3917 29.7714 15.5398 29.7714M15.8825 30.7661H15.7621C15.6047 30.9521 15.438 31.0915 15.2805 31.0915C15.1231 31.0915 15.0212 30.9892 15.0212 30.7661C15.0212 30.6732 15.0305 30.5802 15.049 30.4965L16.0399 30.1711C16.2344 29.7063 16.0029 29.5111 15.7251 29.5111C15.2528 29.5111 14.7156 30.3013 14.7156 30.9892C14.7156 31.296 14.8638 31.4727 15.0953 31.4727C15.3639 31.4727 15.6417 31.2124 15.8732 30.7754M15.6788 29.3252L16.3826 28.6651V28.5907H16.0029L15.5769 29.3252H15.688H15.6788ZM13.5303 29.79H13.8637L13.3358 31.231C13.2895 31.3518 13.3543 31.4727 13.4747 31.4727C13.771 31.4727 14.2526 31.1752 14.4193 30.7754H14.3267C14.197 30.9149 13.9377 31.1008 13.7155 31.1473L14.197 29.7993H14.6879L14.7527 29.5948H14.2711L14.4563 29.0742H14.2711L13.9285 29.5948L13.521 29.6505V29.7993L13.5303 29.79ZM13.0857 29.7249C13.1228 29.5948 13.0394 29.5111 12.9654 29.5111C12.6783 29.5111 12.3356 29.7714 12.1967 30.134H12.2893C12.3819 30.0038 12.5394 29.8551 12.6875 29.8272L12.1412 31.2588C12.0949 31.389 12.1875 31.4634 12.2615 31.4634C12.5301 31.4634 12.8542 31.2031 12.9931 30.8405H12.9005C12.8079 30.9707 12.6505 31.1194 12.5023 31.1473L13.0857 29.7156V29.7249ZM13.1876 28.9998C13.3173 28.9998 13.4284 28.8975 13.4284 28.7581C13.4284 28.6186 13.3173 28.5164 13.1876 28.5164C13.058 28.5164 12.9468 28.6279 12.9468 28.7581C12.9468 28.8882 13.0487 28.9998 13.1876 28.9998ZM11.2799 31.1566L12.2801 28.5257L12.2523 28.4885L11.6226 28.5628V28.6372L11.7429 28.7302C11.8541 28.8139 11.817 28.8975 11.7152 29.1671L10.9373 31.2403C10.8817 31.3518 10.9558 31.482 11.0762 31.482C11.3633 31.482 11.6689 31.2217 11.8078 30.8591H11.7152C11.6226 30.9892 11.4281 31.138 11.2799 31.1659M9.37219 30.9242C9.37219 30.4779 9.86301 29.883 10.1408 29.883C10.2057 29.883 10.2612 29.883 10.3075 29.9015L10.0204 30.6732C9.85375 30.8777 9.60371 31.1194 9.48332 31.1194C9.41849 31.1194 9.37219 31.0636 9.37219 30.9242ZM10.8817 29.446H10.7335L10.5668 29.6041H10.5298C9.71484 29.6041 9.00176 30.5244 9.00176 31.1938C9.00176 31.3797 9.11289 31.4913 9.2981 31.4913C9.5111 31.4913 9.71484 31.1845 9.95562 30.8684V30.98C9.91857 31.3146 10.0204 31.4913 10.1871 31.4913C10.3909 31.4913 10.5668 31.1752 10.715 30.8684H10.6224C10.5298 31.0078 10.4372 31.0915 10.3631 31.0915C10.289 31.0915 10.2334 30.9521 10.3631 30.6639L10.891 29.446H10.8817ZM7.2237 31.8352C7.2237 31.64 7.40891 31.5284 7.66821 31.4169C7.75156 31.4634 7.88121 31.5099 8.05716 31.5656C8.32573 31.6586 8.43686 31.6958 8.43686 31.7702C8.43686 31.9468 8.14051 32.0769 7.73304 32.0769C7.39039 32.0769 7.2237 32.0026 7.2237 31.8259M7.96456 30.6639C7.84417 30.6639 7.79786 30.5616 7.79786 30.45C7.79786 30.134 7.97382 29.6598 8.24238 29.6598C8.36277 29.6598 8.40907 29.7621 8.40907 29.8737C8.40907 30.199 8.23312 30.6639 7.96456 30.6639ZM8.74246 31.6493C8.74246 31.4169 8.53872 31.3332 8.20534 31.231C7.91825 31.1473 7.7886 31.1194 7.7886 31.0264C7.7886 30.9521 7.85343 30.8591 7.97382 30.794C8.44612 30.7661 8.75172 30.3385 8.75172 29.9852C8.75172 29.9108 8.7332 29.8458 8.71468 29.79H9.11289L9.17771 29.5855H8.54798C8.4739 29.539 8.38129 29.5111 8.28868 29.5111C7.7886 29.5111 7.46448 29.948 7.46448 30.3106C7.46448 30.5802 7.64043 30.7475 7.84417 30.794C7.61265 30.8963 7.483 31.0171 7.483 31.1659C7.483 31.2496 7.51078 31.3053 7.57561 31.3611C7.03848 31.5192 6.82549 31.6958 6.82549 31.9561C6.82549 32.2164 7.14961 32.3094 7.53856 32.3094C8.19608 32.3094 8.74246 31.9561 8.74246 31.6493ZM6.2328 30.1061C6.47358 30.1061 6.47358 30.199 6.43653 30.4593H6.57545L6.89031 29.5948H6.7514C6.63101 29.7993 6.5384 29.948 6.2791 29.948H5.7605L6.0198 29.2229C6.10315 28.9812 6.15871 28.9347 6.48284 28.9347H6.71436C7.04774 28.9347 7.08479 29.0277 7.08479 29.3623H7.21444L7.32557 28.7674H5.36229L5.32524 28.8789C5.70494 28.9626 5.74198 28.9905 5.56602 29.4925L5.13077 30.6732C4.95481 31.1659 4.87147 31.2031 4.43621 31.2867L4.39917 31.3983H6.60323L7.00144 30.7754H6.85327C6.60323 31.0171 6.28836 31.2403 5.84385 31.2403C5.26042 31.2403 5.31598 31.2124 5.51046 30.6825L5.7142 30.1061H6.24206H6.2328ZM6.51988 28.6L7.2237 28.1166V28.0422H6.7977L6.40875 28.6H6.51988Z" fill="#1B1C1B"/>
    <path d="M15.3083 25.281C15.438 25.281 15.5584 25.3833 15.4935 25.6343L14.8731 25.7737C14.9842 25.4855 15.1602 25.2717 15.2991 25.2717M15.6417 26.2664H15.5213C15.3639 26.4524 15.2065 26.5918 15.0398 26.5918C14.8731 26.5918 14.7805 26.4896 14.7805 26.2664C14.7805 26.1735 14.7897 26.0805 14.8083 25.9968L15.7992 25.6715C15.9936 25.2066 15.7621 25.0114 15.4843 25.0114C15.012 25.0114 14.4749 25.8016 14.4749 26.4896C14.4749 26.7964 14.623 26.973 14.8546 26.973C15.1231 26.973 15.4009 26.7127 15.6325 26.2757M15.438 24.8255L16.1418 24.1654V24.091H15.7621L15.3269 24.8255H15.438ZM13.3821 25.2903H13.6414L13.1135 26.7313C13.0672 26.8521 13.1321 26.973 13.2617 26.973C13.5581 26.973 14.0396 26.6755 14.2063 26.2757H14.1137C13.984 26.4152 13.7247 26.6011 13.5025 26.6476L13.984 25.2996H14.4749L14.5397 25.0951H14.0581L14.2433 24.5745H14.0489L13.7062 25.0951L13.3728 25.1509V25.2996L13.3821 25.2903ZM13.1228 25.4483C13.1876 25.2159 13.1598 25.0114 12.9746 25.0114C12.7616 25.0114 12.7061 25.1695 12.4931 25.6343V25.3647C12.4931 25.1695 12.4282 25.0021 12.2615 25.0021C12.0578 25.0021 11.8819 25.3182 11.7337 25.625H11.8263C11.9282 25.4855 12.0115 25.4019 12.0856 25.4019C12.1689 25.4019 12.2152 25.532 12.0856 25.8295L11.6966 26.6941C11.6226 26.8521 11.6966 26.9637 11.8541 26.9637C11.9467 26.9637 11.993 26.9358 12.03 26.8335L12.4097 25.8202C12.5208 25.6901 12.6135 25.5692 12.7338 25.4391H13.1043L13.1228 25.4483ZM10.9187 25.2717C11.0484 25.2717 11.1688 25.374 11.104 25.625L10.4835 25.7644C10.5946 25.4762 10.7706 25.2624 10.9095 25.2624M11.2521 26.2572H11.1317C10.9743 26.4431 10.8076 26.5825 10.6502 26.5825C10.4927 26.5825 10.3909 26.4803 10.3909 26.2572C10.3909 26.1642 10.4001 26.0712 10.4187 25.9875L11.4096 25.6622C11.604 25.1973 11.3725 25.0021 11.0947 25.0021C10.6224 25.0021 10.0853 25.7923 10.0853 26.4803C10.0853 26.7871 10.2334 26.9637 10.465 26.9637C10.7335 26.9637 11.0113 26.7034 11.2429 26.2664M8.80729 26.6755C8.71468 26.6755 8.56651 26.5825 8.56651 26.5082C8.56651 26.4803 8.61281 26.3687 8.65911 26.2293L8.82581 25.8016C9.00176 25.5971 9.26106 25.374 9.40923 25.374C9.50184 25.374 9.56667 25.4298 9.56667 25.5692C9.56667 25.9597 9.19624 26.6755 8.80729 26.6755ZM9.9371 25.4019C9.9371 25.1137 9.82597 25.0021 9.63149 25.0021C9.38145 25.0021 9.14067 25.2717 8.90915 25.5971L9.5111 24.0167L9.48332 23.9795L8.85359 24.0539V24.1282L8.97398 24.2212C9.08511 24.3049 9.04807 24.3978 8.9462 24.6581L8.29794 26.3315C8.25164 26.4524 8.19608 26.6011 8.19608 26.6383C8.19608 26.8149 8.4276 26.973 8.64059 26.973C9.13141 26.973 9.94636 26.0898 9.94636 25.4112M7.99234 25.2159C8.02938 25.0858 7.94604 25.0114 7.87195 25.0114C7.58487 25.0114 7.24222 25.2717 7.10331 25.6343H7.19592C7.28852 25.5041 7.44596 25.3554 7.59413 25.3275L7.04774 26.7592C7.00144 26.8893 7.09405 26.9637 7.16813 26.9637C7.44596 26.9637 7.76082 26.7034 7.89973 26.3408H7.80712C7.71452 26.471 7.55708 26.6197 7.40891 26.6476L7.99234 25.2159ZM8.09421 24.4908C8.22386 24.4908 8.33499 24.3885 8.33499 24.2491C8.33499 24.1096 8.22386 24.0074 8.09421 24.0074C7.96456 24.0074 7.85343 24.1189 7.85343 24.2491C7.85343 24.3792 7.9553 24.4908 8.09421 24.4908ZM6.64953 24.2584H5.34377L5.30672 24.3699C5.69567 24.4536 5.72346 24.4815 5.5475 24.9835L5.12151 26.1642C4.94555 26.6569 4.86221 26.6941 4.42695 26.7778L4.39917 26.8893H6.39023L6.81622 26.1177H6.66805C6.42727 26.3873 6.14019 26.7313 5.69567 26.7313C5.36229 26.7313 5.32524 26.6755 5.5012 26.1642L5.92719 24.9835C6.10315 24.4908 6.17723 24.4536 6.62175 24.3699L6.64953 24.2584Z" fill="#1B1C1B"/>
    <rect width="17.9008" height="6.52619" transform="translate(4.39917 6)" fill="white"/>
    <path d="M11.7892 11.7639C11.8633 11.6988 11.9282 11.6151 12.0022 11.5408C12.1319 11.392 12.2615 11.2526 12.4097 11.1224C12.456 11.0852 12.5023 11.048 12.5394 11.0108C12.5486 11.0015 12.5486 10.9737 12.5672 10.9644C12.5023 10.9923 12.4653 11.0387 12.4097 11.0666C12.4005 11.0666 12.3819 11.0573 12.4005 11.0387C12.4468 11.0016 12.4838 10.9737 12.5301 10.9365C12.5208 10.9365 12.5208 10.9272 12.5208 10.9086C12.3634 10.8807 12.2338 10.9923 12.1319 11.0945C12.1041 11.1038 12.0856 11.0852 12.0671 11.0852C11.8819 11.1503 11.7429 11.3083 11.567 11.3827V11.3548C11.4929 11.3827 11.4188 11.4292 11.3447 11.4385C11.2336 11.4664 11.141 11.4478 11.0391 11.4478C10.891 11.4664 10.7428 11.4943 10.5946 11.5315C10.5946 11.5315 10.5946 11.5315 10.5854 11.5315C10.502 11.55 10.4279 11.5872 10.3538 11.6244C10.3538 11.6244 10.3446 11.643 10.3353 11.643C10.3075 11.6709 10.289 11.6988 10.252 11.7174C10.1779 11.7546 10.1131 11.8196 10.0482 11.8754C10.0482 11.8754 10.039 11.8754 10.0297 11.8754C9.96488 11.9405 9.90005 12.0056 9.83523 12.0614C9.83523 12.0614 9.80745 12.0614 9.79819 12.0614C9.79819 12.0614 9.79819 12.0614 9.79819 12.0521C9.80745 12.0335 9.81671 12.0149 9.82597 11.9963C9.83523 11.9777 9.85375 11.9591 9.86301 11.9405C9.88153 11.9126 9.90005 11.8847 9.91858 11.8661C9.91858 11.8661 9.91858 11.8568 9.91858 11.8475C9.91858 11.8475 9.90932 11.8475 9.90005 11.8475C9.96488 11.7918 10.039 11.736 10.1038 11.6895C10.1038 11.6895 10.0853 11.6895 10.0945 11.6709C10.0945 11.6616 10.1038 11.6523 10.1131 11.6337C10.1131 11.6337 10.1131 11.6337 10.1131 11.6244C10.1131 11.6244 10.1131 11.6244 10.1038 11.6151C10.0853 11.6244 10.0667 11.643 10.0482 11.6523C10.0204 11.6802 9.99266 11.736 9.95562 11.736C9.95562 11.736 9.94636 11.736 9.9371 11.736H9.92784C9.92784 11.736 9.92784 11.736 9.92784 11.7267C9.92784 11.7267 9.92784 11.7267 9.92784 11.7174C9.92784 11.7174 9.92784 11.7081 9.92784 11.6988C9.92784 11.6988 9.92784 11.6988 9.92784 11.6895C9.92784 11.6802 9.9371 11.6709 9.94636 11.6616V11.6523C9.94636 11.6523 9.95562 11.6337 9.95562 11.6244C9.95562 11.6151 9.95562 11.6058 9.95562 11.6058C9.97414 11.5779 10.0019 11.55 10.039 11.5315C10.0853 11.5036 10.1316 11.4757 10.1779 11.4478C10.1779 11.4478 10.1871 11.4385 10.1964 11.4292C10.1223 11.4571 10.0667 11.485 10.0019 11.5222C10.0019 11.5222 9.9834 11.5222 9.9834 11.5315C9.9834 11.5315 9.97414 11.5315 9.95562 11.5222C9.96488 11.4943 10.0019 11.485 10.0297 11.4571C10.039 11.4571 10.0575 11.4571 10.0575 11.4664C10.4464 11.1596 10.9928 11.234 11.4466 11.0759C11.4836 11.048 11.5207 11.0294 11.5577 11.0016C11.6226 10.9737 11.6689 10.9179 11.7429 10.8807C11.8448 10.8063 11.9189 10.7227 11.9559 10.5925C11.9559 10.5832 11.9467 10.5646 11.9467 10.5646C11.7892 10.7412 11.604 10.8714 11.4096 10.9737C11.1503 11.1131 10.8724 11.0852 10.5946 11.1224C10.6039 11.0945 10.6317 11.0945 10.6594 11.0945C10.6594 11.0573 10.6872 11.048 10.7057 11.0201H10.7428C10.7428 11.0201 10.752 10.9923 10.7706 10.9923C10.7983 10.9923 10.8354 10.983 10.8169 10.983C10.7798 10.9365 10.7057 11.0201 10.6409 10.983C10.6687 10.9551 10.6502 10.9179 10.678 10.9086H10.7243L10.752 10.8621C10.9373 10.7505 11.104 10.6669 11.2799 10.5646C11.2429 10.5646 11.2151 10.6018 11.178 10.5739C11.2058 10.5739 11.178 10.5367 11.2058 10.5367C11.3447 10.4995 11.4559 10.4252 11.5855 10.3787C11.5392 10.3787 11.5022 10.4159 11.4466 10.3787C11.4744 10.3694 11.4836 10.3415 11.5207 10.3415V10.3043C11.5207 10.3043 11.5299 10.295 11.5485 10.295C11.5392 10.295 11.5207 10.2857 11.5207 10.2857C11.5299 10.2578 11.567 10.2764 11.5948 10.2485C11.5855 10.2485 11.5577 10.2485 11.5577 10.2392C11.5948 10.1927 11.6596 10.1742 11.7152 10.1649C11.7059 10.137 11.6689 10.1649 11.6689 10.137C11.6689 10.1277 11.6781 10.1277 11.6966 10.1277H11.6689C11.6689 10.1277 11.6596 10.0905 11.6596 10.0812C11.7337 9.99752 11.7337 9.88596 11.7707 9.7837C11.7615 9.7837 11.7429 9.7837 11.7429 9.7744C11.6226 9.91385 11.4281 9.96034 11.2429 10.0068H11.178C11.1132 10.0347 11.0299 10.0347 10.965 9.99752C10.9187 9.96963 10.891 9.93245 10.8447 9.89526C10.7428 9.83018 10.6502 9.7837 10.539 9.74651C10.2334 9.64425 9.90932 9.59777 9.59445 9.60707C9.73336 9.53269 9.88153 9.5234 10.0204 9.48621C10.2334 9.42113 10.4279 9.34676 10.6502 9.36536C10.6131 9.35606 10.5668 9.36536 10.5298 9.36536C10.3631 9.35606 10.1871 9.40254 10.0019 9.43973C9.88153 9.46762 9.7704 9.5141 9.64075 9.54199C9.56667 9.56988 9.52962 9.64425 9.44628 9.62566V9.58847C9.56667 9.43973 9.71484 9.29098 9.91858 9.28169C10.1408 9.2445 10.3446 9.28169 10.5668 9.30958C10.7243 9.31887 10.8724 9.35606 11.0299 9.39324C11.0947 9.39324 11.104 9.49551 11.1503 9.5048C11.2243 9.53269 11.2984 9.5048 11.3725 9.55129C11.3725 9.5234 11.3633 9.5048 11.3725 9.47691C11.4188 9.43043 11.4836 9.48621 11.5299 9.46762C11.6318 9.40254 11.4466 9.29098 11.391 9.20731C11.391 9.19802 11.4003 9.17942 11.4003 9.17942C11.5022 9.26309 11.5762 9.36536 11.6966 9.42113C11.7615 9.44902 11.9096 9.48621 11.8819 9.41184C11.817 9.27239 11.6966 9.17013 11.5948 9.03998V8.99349C11.5948 8.99349 11.567 8.9842 11.5577 8.9656V8.91912C11.5114 8.89123 11.5207 8.84475 11.4929 8.80756C11.4559 8.74249 11.4836 8.65882 11.4559 8.58444C11.4281 8.51007 11.4188 8.445 11.4096 8.37062C11.3725 8.1661 11.3262 7.98017 11.2984 7.77564C11.2706 7.54323 11.4373 7.3573 11.5485 7.14348C11.6318 6.99473 11.7337 6.84599 11.8911 6.75302C11.9282 6.60428 12.03 6.48342 12.1226 6.36257C12.2245 6.24171 12.3819 6.16734 12.5023 6.12086C12.6783 6.04648 12.8265 6 12.8265 6H4.39917V12.5262H10.3724C10.6039 12.3588 10.8447 12.2752 11.1688 12.1171C11.3262 12.0428 11.6781 11.8754 11.7985 11.7546M9.90932 10.8714C9.90932 10.8714 9.83523 10.8807 9.84449 10.8621C9.85375 10.797 9.94636 10.797 9.99266 10.7784C10.0204 10.7691 10.0575 10.7412 10.076 10.7505C10.1038 10.7877 10.1408 10.7784 10.1594 10.797C10.0853 10.8714 9.99266 10.8342 9.90005 10.8714M8.02012 10.6018C8.02012 10.6018 8.01086 10.5925 8.01086 10.5739C8.16829 10.3601 8.28868 10.1649 8.39981 9.94174C8.55725 9.85807 8.69616 9.72792 8.81655 9.59777C9.02028 9.37465 9.24254 9.17942 9.50184 9.05857C9.60371 9.02138 9.7241 9.03068 9.81671 9.06787C9.77966 9.11435 9.71484 9.10505 9.66854 9.14224C9.65928 9.14224 9.64075 9.14224 9.63149 9.13294C9.64075 9.12364 9.64075 9.10505 9.64075 9.09575C9.52036 9.2352 9.34441 9.29098 9.2518 9.45832C9.17772 9.57918 9.13141 9.74651 8.96472 9.7744C8.91842 9.7837 8.97398 9.73722 8.95546 9.74651C8.57577 9.97893 8.30721 10.2671 8.01086 10.5925M9.02954 9.7744C9.02954 9.7744 9.00176 9.80229 8.9925 9.82089C8.98324 9.84878 8.96472 9.85807 8.9462 9.86737C8.93694 9.86737 8.91842 9.86737 8.91842 9.85807C8.92768 9.81159 8.96472 9.75581 9.02028 9.74651C9.02954 9.74651 9.02954 9.75581 9.02954 9.7744ZM9.60371 11.6244C9.60371 11.6244 9.58519 11.6523 9.57593 11.6616C9.59445 11.6616 9.60371 11.6709 9.59445 11.6802C9.56667 11.7081 9.53889 11.736 9.50184 11.7453C9.50184 11.7453 9.49258 11.7453 9.48332 11.7453C9.4648 11.7639 9.45554 11.7732 9.43702 11.7918C9.4185 11.8011 9.35367 11.7918 9.37219 11.7732C9.39997 11.7453 9.43702 11.7174 9.4648 11.6895C9.48332 11.6709 9.50184 11.6616 9.5111 11.643C9.5111 11.6337 9.52962 11.6244 9.53889 11.6151C9.54815 11.6151 9.61297 11.6058 9.60371 11.6244ZM9.38145 11.5222C9.33515 11.55 9.28885 11.5872 9.24254 11.6151C9.18698 11.643 9.13141 11.6709 9.08511 11.6988C9.08511 11.6988 9.07585 11.6895 9.06659 11.6988C9.02028 11.7267 8.98324 11.7546 8.9462 11.7918C8.9462 11.7918 8.93694 11.8011 8.92768 11.8104C8.92768 11.8104 8.91842 11.8196 8.90915 11.8289C8.90915 11.8289 8.89063 11.8475 8.88137 11.8568C8.88137 11.8568 8.88137 11.8661 8.86285 11.8754C8.86285 11.8754 8.83507 11.8754 8.83507 11.8661C8.83507 11.8661 8.81655 11.8661 8.81655 11.8754C8.81655 11.8754 8.80729 11.8754 8.79803 11.8847C8.7795 11.894 8.77024 11.9126 8.75172 11.9219C8.72394 11.9405 8.70542 11.9684 8.67764 11.9963C8.67764 11.9963 8.67764 11.9963 8.67764 12.0056C8.67764 12.0056 8.67764 12.0056 8.66838 12.0056C8.66838 12.0056 8.66838 11.9963 8.65911 11.987C8.67764 11.9684 8.6869 11.9591 8.69616 11.9405C8.69616 11.9405 8.70542 11.9312 8.70542 11.9219C8.70542 11.9126 8.72394 11.9033 8.72394 11.894C8.72394 11.894 8.72394 11.894 8.72394 11.8847C8.7332 11.8661 8.75172 11.8475 8.76098 11.8289C8.76098 11.8289 8.76098 11.8289 8.76098 11.8196C8.76098 11.8196 8.77024 11.8011 8.7795 11.7918C8.7795 11.7918 8.78876 11.7732 8.79803 11.7639C8.79803 11.7639 8.79803 11.7453 8.80729 11.736C8.80729 11.736 8.80729 11.736 8.80729 11.7267C8.80729 11.7267 8.80729 11.7174 8.80729 11.7081C8.81655 11.6895 8.83507 11.6616 8.85359 11.643C8.83507 11.6523 8.82581 11.6709 8.80729 11.6802C8.79803 11.6895 8.77024 11.6802 8.78876 11.6616C8.79803 11.6616 8.80729 11.643 8.81655 11.6337C8.81655 11.6337 8.85359 11.5872 8.88137 11.5686C8.89989 11.5593 8.90915 11.55 8.91842 11.5408C8.91842 11.5315 8.93694 11.5222 8.9462 11.5129C9.06659 11.4013 9.26106 11.4013 9.4185 11.3362C9.48332 11.3083 9.55741 11.3455 9.61297 11.3362C9.65001 11.3362 9.68706 11.3362 9.7241 11.3641C9.61297 11.4292 9.5111 11.4943 9.40924 11.5593M9.65928 10.7041C9.65928 10.7041 9.69632 10.7041 9.70558 10.6762H9.60371C9.60371 10.6762 9.59445 10.6669 9.59445 10.6483C9.52962 10.6576 9.45554 10.6855 9.39997 10.6948C9.31663 10.7227 9.24254 10.7784 9.14067 10.8063C9.00176 10.8528 8.89063 10.9644 8.75172 11.0201C8.74246 11.0201 8.74246 11.0108 8.74246 10.9923C8.75172 10.9551 8.80729 10.9458 8.82581 10.9086C8.82581 10.8993 8.82581 10.8807 8.81655 10.8807C8.91842 10.7412 9.04807 10.6669 9.17772 10.5553V10.5181C9.21476 10.4716 9.27958 10.4438 9.29811 10.3787C9.30737 10.3415 9.36293 10.295 9.4185 10.2671C9.40924 10.2578 9.38145 10.2578 9.38145 10.2299C9.33515 10.2299 9.27958 10.2578 9.23328 10.2206C9.26106 10.202 9.27958 10.1835 9.30737 10.1742C9.29811 10.1742 9.28885 10.1742 9.27958 10.1556C9.27032 10.1277 9.30737 10.0998 9.34441 10.0905C9.39071 10.0812 9.45554 10.0812 9.49258 10.044C9.40924 10.0347 9.30737 10.0719 9.22402 10.0161C9.28885 9.85807 9.38145 9.71862 9.52962 9.64425C9.53889 9.64425 9.56667 9.64425 9.56667 9.65355C9.56667 9.71862 9.52962 9.76511 9.4648 9.7744C9.56667 9.80229 9.65928 9.80229 9.76114 9.84878C9.75188 9.87667 9.7241 9.85807 9.71484 9.85807C9.77966 9.89526 9.85375 9.86737 9.90932 9.92315C9.87227 9.96034 9.83523 9.92315 9.79819 9.92315C10.1779 10.0347 10.5854 10.1184 10.9002 10.3694C10.6317 10.5088 10.3446 10.5646 10.0482 10.6297C10.0112 10.6297 9.9834 10.6297 9.94636 10.6204C9.94636 10.6297 9.94636 10.6576 9.9371 10.6576C9.89079 10.6576 9.85375 10.6576 9.81671 10.6855C9.7704 10.7134 9.69632 10.7227 9.65928 10.6855" fill="#273475"/>
    <path d="M22.2814 6H15.2895C15.2895 6 15.2988 6 15.3544 6.02789C15.4099 6.05578 15.484 6.10226 15.5303 6.12086C15.6229 6.16734 15.7063 6.22312 15.7618 6.31608C15.7896 6.35327 15.8267 6.42764 15.7989 6.47412C15.7711 6.5392 15.7618 6.63217 15.697 6.66006C15.6229 6.69724 15.5211 6.69724 15.4377 6.68795C15.3914 6.68795 15.3359 6.67865 15.2895 6.66006C15.4748 6.73443 15.6507 6.8181 15.7711 6.99473C15.7804 7.02262 15.8359 7.03192 15.8822 7.03192C15.8915 7.03192 15.8915 7.05981 15.8915 7.0691C15.8637 7.09699 15.8452 7.10629 15.8545 7.14348H15.8915C15.9563 7.11559 15.9378 6.99473 16.0304 7.03192C16.0952 7.0691 16.1138 7.15277 16.0767 7.21785C16.0304 7.26433 15.9748 7.30152 15.9285 7.3387C15.9193 7.36659 15.9193 7.40378 15.9285 7.42237C15.9656 7.46886 15.9748 7.52464 15.9934 7.57112C16.0304 7.65479 16.0397 7.75705 16.0767 7.84072C16.123 8.02665 16.1786 8.21258 16.1601 8.39851C16.1601 8.50077 16.1138 8.58444 16.1508 8.68671C16.1786 8.78897 16.2341 8.86334 16.2897 8.94701C16.336 9.02138 16.3916 9.06787 16.4286 9.14224C16.5027 9.26309 16.6324 9.39324 16.5768 9.53269C16.5397 9.61636 16.4008 9.60707 16.3175 9.65355C16.2434 9.71862 16.3082 9.81159 16.3453 9.87667C16.4101 9.98822 16.2712 10.0626 16.1878 10.0998C16.2156 10.137 16.2619 10.1277 16.2712 10.1463C16.2804 10.2113 16.3453 10.2485 16.3082 10.3043C16.2619 10.3787 16.1138 10.4159 16.1878 10.5274C16.2341 10.6111 16.2064 10.7134 16.1786 10.797C16.1415 10.9086 16.0397 10.9551 15.9563 10.983C15.8822 11.0108 15.7989 11.0108 15.7248 10.9923C15.697 10.983 15.6785 10.9644 15.6507 10.9644C15.4377 10.9365 15.234 10.8807 15.021 10.8807C14.9562 10.89 14.9006 10.9086 14.8543 10.9272C14.7987 10.9644 14.7524 11.0108 14.7061 11.0573C14.7061 11.0573 14.6876 11.0759 14.6783 11.0852C14.6783 11.0852 14.6691 11.0945 14.6598 11.1038C14.6598 11.1038 14.6598 11.1038 14.6506 11.1131C14.6135 11.1596 14.5857 11.2061 14.5579 11.2526C14.5579 11.2526 14.5579 11.2619 14.5487 11.2712C14.5116 11.3455 14.4746 11.4199 14.4561 11.4943C14.3727 11.7732 14.4098 12.0149 14.4653 12.08C14.4839 12.0985 14.8728 12.2194 15.1414 12.3403C15.271 12.396 15.3544 12.4425 15.4285 12.489H22.2999V6H22.2814Z" fill="#E30613"/>
    <path d="M15.6971 8.38002C15.7434 8.38932 15.8175 8.38932 15.8175 8.41721C15.7897 8.51947 15.6416 8.53806 15.5675 8.64032H15.5304C15.5304 8.64032 15.5027 8.72399 15.4656 8.72399C15.4286 8.7147 15.3915 8.72399 15.3545 8.73329C15.4008 8.77977 15.4656 8.81696 15.5397 8.80766C15.549 8.80766 15.5767 8.83555 15.5767 8.85415C15.5767 8.85415 15.586 8.85415 15.6045 8.84485C15.6138 8.84485 15.6323 8.84485 15.6323 8.85415V8.90063C15.5953 8.94711 15.5304 8.92852 15.4841 8.93782C15.586 8.9657 15.6786 8.9657 15.7712 8.93782C15.8453 8.90993 15.7712 8.78907 15.8175 8.72399C15.7897 8.72399 15.8175 8.68681 15.7897 8.68681C15.8175 8.65892 15.836 8.62173 15.8638 8.61244C15.8916 8.61244 15.9287 8.60314 15.9379 8.57525C15.9379 8.54736 15.8916 8.53806 15.9009 8.51017C15.975 8.46369 16.0398 8.38932 16.012 8.31495C16.0027 8.27776 15.9009 8.27776 15.836 8.24987C15.7712 8.22198 15.6971 8.24987 15.6323 8.25917C15.5675 8.25917 15.5119 8.29635 15.4471 8.30565C15.3637 8.33354 15.2897 8.38002 15.2156 8.4265C15.2989 8.38932 15.3915 8.38002 15.4841 8.35213C15.5582 8.35213 15.623 8.33354 15.6971 8.35213" fill="#9D9D9C"/>
</svg>
